# Blender 4.4.3
# www.blender.org
mtllib grass.mtl
o Plane
v 0.471117 -2.057512 0.000000
v -0.471117 -2.057512 0.000000
v 0.396717 -0.110362 -0.000000
v -0.396717 -0.110362 0.000000
v 0.254250 1.604291 -0.000000
v -0.254250 1.604291 -0.000000
v 0.163675 2.342516 -0.000000
v -0.163675 2.342516 -0.000000
v -0.000000 3.431082 -0.000000
v 0.433917 -0.992229 0.000000
v -0.433917 -0.992229 0.000000
v -0.324682 0.796709 -0.000000
v 0.324682 0.796709 -0.000000
vn 0.3461 -0.0000 -0.9382
vn -0.3461 -0.0000 -0.9382
vn 0.2049 -0.0000 -0.9788
vn -0.2049 -0.0000 -0.9788
vn -0.0678 -0.0000 -0.9977
vn 0.0678 -0.0000 -0.9977
vt 0.006819 0.210694
vt 0.164921 0.210694
vt 0.158144 0.421347
vt 0.013596 0.421347
vt 0.022141 0.529263
vt 0.149599 0.529263
vt 0.141054 0.637180
vt 0.030686 0.637180
vt 0.115688 0.801643
vt 0.056052 0.801643
vt 0.085870 0.999959
vt 0.000041 0.000041
vt 0.171699 0.000041
s 0
f 10/1/1 11/2/2 4/3/2 3/4/1
f 13/5/3 12/6/4 6/7/4 5/8/3
f 5/8/3 6/7/4 8/9/5 7/10/6
f 7/10/6 8/9/5 9/11/5
f 1/12/1 2/13/2 11/2/2 10/1/1
f 3/4/1 4/3/2 12/6/4 13/5/3
