# Blender 4.4.3
# www.blender.org
mtllib grass.mtl
o Plane
v 0.471117 -2.057512 0.000000
v -0.471117 -2.057512 0.000000
v 0.396717 0.255053 -0.000000
v -0.396717 0.255053 0.000000
v 0.302908 1.439771 -0.000000
v -0.302908 1.439771 -0.000000
v 0.163675 2.342516 -0.000000
v -0.163675 2.342516 -0.000000
v -0.000000 3.431082 -0.000000
vn 0.3461 -0.0000 -0.9382
vn -0.3461 -0.0000 -0.9382
vn -0.2049 -0.0000 -0.9788
vn 0.2049 -0.0000 -0.9788
vn -0.0678 -0.0000 -0.9977
vn 0.0678 -0.0000 -0.9977
vt 0.000000 0.000000
vt 1.000000 0.000000
vt 1.000000 1.000000
vt 0.000000 1.000000
s 0
f 1/1/1 2/2/2 4/3/2 3/4/1
f 3/4/1 4/3/2 6/3/3 5/4/4
f 5/4/4 6/3/3 8/3/5 7/4/6
f 7/4/6 8/3/5 9/4/5
